<?xml version="1.0" encoding="iso-8859-1"?>
<!-- Generator: Adobe Illustrator 19.0.0, SVG Export Plug-In . SVG Version: 6.00 Build 0)  -->
<svg version="1.1" id="Layer_1" xmlns="http://www.w3.org/2000/svg" xmlns:xlink="http://www.w3.org/1999/xlink" x="0px" y="0px"
	 viewBox="0 0 502 502" style="enable-background:new 0 0 502 502;" xml:space="preserve">
<g>
	<g>
		<g>
			<path d="M469.575,102.529c-20.909-20.909-48.71-32.425-78.28-32.425s-57.371,11.516-78.28,32.425L251,164.543l-62.015-62.015
				c-20.909-20.909-48.71-32.425-78.28-32.425s-57.371,11.516-78.28,32.425S0,151.238,0,180.809
				c0,29.571,11.516,57.371,32.425,78.28l136.613,136.613c1.18,1.296,2.387,2.566,3.594,3.771
				c20.912,20.911,48.707,32.424,78.278,32.424c0.027,0,0.055,0,0.082,0c0.006,0,0.012,0,0.018,0c0.027,0,0.054,0,0.082,0
				c29.569,0,57.367-11.514,78.278-32.424c1.216-1.216,2.421-2.485,3.593-3.77L469.576,259.09
				C490.484,238.18,502,210.379,502,180.809C502,151.239,490.484,123.438,469.575,102.529z M141.782,340.161l-17.987-17.987
				l5.557-5.665c3.867-3.943,3.807-10.274-0.136-14.142c-3.945-3.868-10.275-3.807-14.142,0.136l-5.423,5.528l-63.085-63.085
				C29.435,227.814,20,205.037,20,180.809c0-24.228,9.435-47.006,26.567-64.138c17.132-17.133,39.909-26.567,64.138-26.567
				s47.006,9.435,64.138,26.567l62.015,62.015l-64.227,64.227c-26.421,26.42-36.798,62.925-30.84,97.26L141.782,340.161z
				 M455.433,244.947l-63.121,63.12L320.5,236.255c-3.906-3.904-10.236-3.904-14.143,0c-3.905,3.905-3.905,10.237,0,14.143
				l71.812,71.812l-59.464,59.464l-3.656,3.656c-2.139,2.139-4.366,4.158-6.672,6.053C292.231,404.65,272.17,411.875,251,411.896
				c-24.195-0.024-46.941-9.458-64.049-26.566l-3.483-3.483c-32.303-35.85-30.871-90.616,3.306-124.792l140.384-140.384
				c17.132-17.133,39.909-26.567,64.138-26.567s47.006,9.435,64.138,26.567C472.565,133.803,482,156.58,482,180.809
				S472.565,227.815,455.433,244.947z"/>
			<path d="M284.813,200.568c-3.906-3.904-10.236-3.904-14.143,0c-3.905,3.905-3.905,10.237,0,14.143l11.711,11.711
				c1.953,1.952,4.512,2.929,7.071,2.929s5.118-0.977,7.071-2.929c3.905-3.905,3.905-10.237,0-14.143L284.813,200.568z"/>
		</g>
	</g>
</g>
<g>
</g>
<g>
</g>
<g>
</g>
<g>
</g>
<g>
</g>
<g>
</g>
<g>
</g>
<g>
</g>
<g>
</g>
<g>
</g>
<g>
</g>
<g>
</g>
<g>
</g>
<g>
</g>
<g>
</g>
</svg>
