<?xml version="1.0" encoding="iso-8859-1"?>
<!-- Generator: Adobe Illustrator 19.0.0, SVG Export Plug-In . SVG Version: 6.00 Build 0)  -->
<svg version="1.1" id="Layer_1" xmlns="http://www.w3.org/2000/svg" xmlns:xlink="http://www.w3.org/1999/xlink" x="0px" y="0px"
	 viewBox="0 0 512 512" style="enable-background:new 0 0 512 512;" xml:space="preserve">
<g>
	<g>
		<polygon points="333.052,426.499 333.052,392.366 315.986,392.366 315.986,426.499 281.852,426.499 281.852,443.566 
			315.986,443.566 315.986,477.699 333.052,477.699 333.052,443.566 367.186,443.566 367.186,426.499 		"/>
	</g>
</g>
<g>
	<g>
		<path d="M510.927,499.491l-30.213-54.383c-7.773-13.988-25.548-29.1-40.683-34.65c-17.09-8.654-62.471-33.121-74.731-46.196
			l-26.465-28.229c42.556-5.963,73.061-14.742,74.971-15.298c4.125-1.202,6.713-5.283,6.042-9.525
			c-0.223-1.4-22.137-140.232-22.137-174.509c0-75.285-61.248-136.534-136.534-136.534S124.644,61.415,124.644,136.701
			c0,34.025-30.273,172.619-30.579,174.017c-0.996,4.54,1.827,9.042,6.35,10.123c2.115,0.506,33.125,7.848,74.206,13.637
			L146.7,364.26c-12.229,13.044-57.629,37.531-74.734,46.2c-15.135,5.55-32.91,20.66-40.683,34.65l-30.21,54.381
			c-1.467,2.644-1.427,5.696,0.106,8.302c1.533,2.606,4.331,4.04,7.354,4.04h494.934c3.023,0,5.821-1.433,7.354-4.04
			C512.355,505.187,512.394,502.135,510.927,499.491z M141.71,136.701c0-65.875,53.592-119.467,119.467-119.467
			c65.875,0,119.467,53.592,119.467,119.467c0,4.079,0.288,9.498,0.786,15.863c-66.621-21.188-66.084-45.954-65.898-48.092
			c1.208-3.869-0.577-7.767-4.158-9.717c-3.633-1.981-8.254-0.748-10.835,2.481c-59.867,74.833-148.652,66.913-161.132,65.379
			C140.842,151.841,141.71,142.805,141.71,136.701z M112.533,306.068c4.725-22.002,17.408-82.225,24.394-126.55
			c3.442,0.469,11.311,1.344,22.231,1.344c33.085,0,93.986-8.046,143.217-59.79c7.298,14.458,27.177,33.804,79.173,49.402
			c0.533,0.16,1.069,0.256,1.602,0.31c4.796,45.054,15.115,112.738,18.652,135.502c-19.663,5.035-76.679,18.148-137.269,18.148
			C203.24,324.434,135.531,311.037,112.533,306.068z M23.035,494.766l23.167-41.538c5.902-10.621,20.552-22.919,31.99-26.954
			c0.346-0.123,0.681-0.225,1.008-0.39c6.431-3.248,63.313-32.227,79.95-49.973l34.808-37.119c0.487-0.519,0.871-1.088,1.202-1.683
			c22.135,2.56,46.058,4.39,69.373,4.39c18.511,0,36.552-1.154,53.346-2.908c0.06,0.067,0.1,0.146,0.163,0.212l34.808,37.131
			c16.673,17.783,73.525,46.748,79.952,49.994c0.327,0.163,0.663,0.306,1.006,0.427c11.437,4.038,26.087,16.252,31.987,26.873
			l23.169,41.538H23.035z"/>
	</g>
</g>
<g>
</g>
<g>
</g>
<g>
</g>
<g>
</g>
<g>
</g>
<g>
</g>
<g>
</g>
<g>
</g>
<g>
</g>
<g>
</g>
<g>
</g>
<g>
</g>
<g>
</g>
<g>
</g>
<g>
</g>
</svg>
