<?xml version="1.0" encoding="iso-8859-1"?>
<!-- Generator: Adobe Illustrator 19.0.0, SVG Export Plug-In . SVG Version: 6.00 Build 0)  -->
<svg version="1.1" id="Layer_1" xmlns="http://www.w3.org/2000/svg" xmlns:xlink="http://www.w3.org/1999/xlink" x="0px" y="0px"
	 viewBox="0 0 512 512" style="enable-background:new 0 0 512 512;" xml:space="preserve">
<g>
	<g>
		<g>
			<path d="M378.114,349.993c-0.002-0.002-0.004-0.003-0.005-0.005c-70.924-58.252-173.357-58.194-244.209-0.005
				c-0.002,0.002-0.003,0.002-0.005,0.004c-44.746,36.738-70.41,90.987-70.41,148.839c0,7.276,5.899,13.175,13.175,13.175
				c15.761,0,342.949,0,358.68,0c7.276,0,13.175-5.899,13.175-13.175C448.515,440.977,422.855,386.732,378.114,349.993z
				 M355.163,365.487l-1.618,7.694l-44.295-31.752C325.647,346.98,341.169,355.077,355.163,365.487z M202.751,341.429
				l-44.295,31.752l-1.618-7.696C170.829,355.077,186.351,346.98,202.751,341.429z M90.352,485.651
				c2.946-37.446,18.385-72.484,43.831-99.854l2.644,12.569c1.96,9.31,12.861,13.519,20.569,7.996l39.474-28.297l40.149,107.585
				H90.352z M219.062,362.16c7.06-5.061,29.67-21.272,36.938-26.482c6.487,4.65,29.565,21.196,36.938,26.482L256,461.142
				L219.062,362.16z M274.98,485.648l40.148-107.583l39.476,28.297c7.603,5.447,18.586,1.428,20.569-7.996l2.644-12.569
				c25.446,27.369,40.885,62.408,43.831,99.852H274.98z"/>
			<path d="M158.934,124.633c-0.643,6.628-0.453,6.644-0.522,40.2c-0.084,39.991-0.091,43.257,2.823,55.444
				c0.002,0.011,0.007,0.019,0.009,0.03c0.002,0.011,0.004,0.023,0.007,0.033c10.686,43.741,49.647,74.29,94.749,74.29
				c53.788,0,97.549-43.761,97.549-97.549c0-63.123,0.2-65.774-0.457-72.539c0.29-1.082-0.94,6.226,17.853-109.253
				C372.247,7.28,366.055,0,357.94,0H154.06c-8.118,0-14.306,7.281-13.005,15.292C159.874,130.935,158.608,123.446,158.934,124.633z
				 M327.198,197.083c0,39.26-31.94,71.198-71.198,71.198c-29.439,0-55.292-17.822-66.004-44.407l88.386-45.061h48.817V197.083z
				 M327.212,152.463h-51.994c-2.08,0-4.132,0.492-5.983,1.437l-84.37,43.012c-0.232-10.313-0.063-28.843-0.063-62.614h142.383
				C327.251,138.924,327.218,146.574,327.212,152.463z M342.446,26.35l-13.277,81.598H182.831L169.554,26.35H342.446z"/>
			<path d="M236.78,80.33h6.045v6.045c0,7.276,5.899,13.175,13.175,13.175s13.175-5.899,13.175-13.175V80.33h6.045
				c7.276,0,13.175-5.899,13.175-13.175s-5.899-13.175-13.175-13.175h-6.045v-6.045c0-7.276-5.899-13.175-13.175-13.175
				s-13.175,5.899-13.175,13.175v6.045h-6.045c-7.276,0-13.175,5.899-13.175,13.175C223.605,74.431,229.504,80.33,236.78,80.33z"/>
		</g>
	</g>
</g>
<g>
</g>
<g>
</g>
<g>
</g>
<g>
</g>
<g>
</g>
<g>
</g>
<g>
</g>
<g>
</g>
<g>
</g>
<g>
</g>
<g>
</g>
<g>
</g>
<g>
</g>
<g>
</g>
<g>
</g>
</svg>
