<?xml version="1.0" encoding="utf-8"?>
<!-- Generator: Adobe Illustrator 19.1.0, SVG Export Plug-In . SVG Version: 6.00 Build 0)  -->
<svg version="1.1" id="Layer_1" xmlns="http://www.w3.org/2000/svg" xmlns:xlink="http://www.w3.org/1999/xlink" x="0px" y="0px"
	 viewBox="0 0 64 64" enable-background="new 0 0 64 64" xml:space="preserve">
<g id="Toilet-paper">
	<path d="M15.475502,23.5268497c0-1.6865005-1.0878-3.0067997-2.4770002-3.0067997
		c-1.3877001,0-2.4745998,1.3202991-2.4745998,3.0067997c0,1.6865997,1.0868998,3.0078011,2.4745998,3.0078011
		C14.387702,26.5346508,15.475502,25.2134495,15.475502,23.5268497z M12.5239019,23.5268497
		c0-0.6543007,0.3368998-1.0067997,0.4745998-1.0067997c0.1386995,0,0.4770002,0.352499,0.4770002,1.0067997
		s-0.3383007,1.0078011-0.4770002,1.0078011C12.8608017,24.5346508,12.5239019,24.1811504,12.5239019,23.5268497z"/>
	<path d="M51.0014,6.2114501H12.9985018c-7.1675,0-12.9984999,7.7675996-12.9984999,17.3153992
		c0,9.5488987,5.8310003,17.3174,12.9984999,17.3174c0.2108002,0,11.0010004,0,11.0010004,0v15.9443016c0,0.5527992,0.4476986,1,1,1
		H63c0.5521965,0,1-0.4472008,1-1V23.5268497C64,13.9790497,58.1688995,6.2114501,51.0014,6.2114501z M2.0000017,23.5268497
		c0-8.4453001,4.934-15.3154001,10.9984999-15.3154001c6.0658998,0,11.0010004,6.8701,11.0010004,15.3154001
		c0,8.4463005-4.9351006,15.3174-11.0010004,15.3174C6.9340014,38.8442497,2.0000017,31.9731503,2.0000017,23.5268497z
		 M19.0455017,38.8442497c2.0300999-1.4277,3.7360001-3.5527,4.9540005-6.1307983v6.1307983H19.0455017z M62,55.7885513H25.9995022
		V23.5268497c0-6.6401005-2.8241997-12.4112997-6.9535999-15.3154001H51.0014c6.0644989,0,10.9986,6.8701,10.9986,15.3154001
		V55.7885513z"/>
</g>
<g>
</g>
<g>
</g>
<g>
</g>
<g>
</g>
<g>
</g>
<g>
</g>
<g>
</g>
<g>
</g>
<g>
</g>
<g>
</g>
<g>
</g>
<g>
</g>
<g>
</g>
<g>
</g>
<g>
</g>
</svg>
